<mxfile host="app.diagrams.net" modified="2023-12-14T15:03:49.918Z" agent="Mozilla/5.0 (Windows NT 10.0; Win64; x64) AppleWebKit/537.36 (KHTML, like Gecko) Chrome/120.0.0.0 Safari/537.36" etag="5fzsytjgSteE4azR4WQB" version="22.1.8" type="github">
  <diagram name="第 1 页" id="kE6YA1kqH45rm807MT5q">
    <mxGraphModel dx="1050" dy="565" grid="1" gridSize="10" guides="1" tooltips="1" connect="1" arrows="1" fold="1" page="1" pageScale="1" pageWidth="827" pageHeight="1169" math="0" shadow="0">
      <root>
        <mxCell id="0" />
        <mxCell id="1" parent="0" />
        <mxCell id="1HQhPPLRjaLAviWX8HrD-12" style="edgeStyle=orthogonalEdgeStyle;rounded=0;orthogonalLoop=1;jettySize=auto;html=1;exitX=0.5;exitY=1;exitDx=0;exitDy=0;entryX=0.5;entryY=0;entryDx=0;entryDy=0;" edge="1" parent="1" source="1HQhPPLRjaLAviWX8HrD-3" target="1HQhPPLRjaLAviWX8HrD-5">
          <mxGeometry relative="1" as="geometry" />
        </mxCell>
        <mxCell id="1HQhPPLRjaLAviWX8HrD-3" value="开始" style="ellipse;whiteSpace=wrap;html=1;aspect=fixed;" vertex="1" parent="1">
          <mxGeometry x="420" y="40" width="50" height="50" as="geometry" />
        </mxCell>
        <mxCell id="1HQhPPLRjaLAviWX8HrD-14" style="edgeStyle=orthogonalEdgeStyle;rounded=0;orthogonalLoop=1;jettySize=auto;html=1;exitX=1;exitY=0.5;exitDx=0;exitDy=0;entryX=0.5;entryY=0;entryDx=0;entryDy=0;" edge="1" parent="1" source="1HQhPPLRjaLAviWX8HrD-16" target="1HQhPPLRjaLAviWX8HrD-8">
          <mxGeometry relative="1" as="geometry">
            <mxPoint x="505" y="260" as="sourcePoint" />
          </mxGeometry>
        </mxCell>
        <mxCell id="1HQhPPLRjaLAviWX8HrD-15" value="是" style="edgeLabel;html=1;align=center;verticalAlign=middle;resizable=0;points=[];" vertex="1" connectable="0" parent="1HQhPPLRjaLAviWX8HrD-14">
          <mxGeometry x="-0.5421" y="-1" relative="1" as="geometry">
            <mxPoint as="offset" />
          </mxGeometry>
        </mxCell>
        <mxCell id="1HQhPPLRjaLAviWX8HrD-13" style="edgeStyle=orthogonalEdgeStyle;rounded=0;orthogonalLoop=1;jettySize=auto;html=1;exitX=0.5;exitY=1;exitDx=0;exitDy=0;entryX=0.5;entryY=0;entryDx=0;entryDy=0;" edge="1" parent="1" source="1HQhPPLRjaLAviWX8HrD-5">
          <mxGeometry relative="1" as="geometry">
            <mxPoint x="445" y="230" as="targetPoint" />
          </mxGeometry>
        </mxCell>
        <mxCell id="1HQhPPLRjaLAviWX8HrD-5" value="读取变量pid,以及size" style="rounded=0;whiteSpace=wrap;html=1;" vertex="1" parent="1">
          <mxGeometry x="385" y="120" width="120" height="60" as="geometry" />
        </mxCell>
        <mxCell id="1HQhPPLRjaLAviWX8HrD-8" value="失败" style="ellipse;whiteSpace=wrap;html=1;aspect=fixed;" vertex="1" parent="1">
          <mxGeometry x="590" y="565" width="40" height="40" as="geometry" />
        </mxCell>
        <mxCell id="1HQhPPLRjaLAviWX8HrD-18" style="edgeStyle=orthogonalEdgeStyle;rounded=0;orthogonalLoop=1;jettySize=auto;html=1;exitX=0.5;exitY=1;exitDx=0;exitDy=0;entryX=0.5;entryY=0;entryDx=0;entryDy=0;" edge="1" parent="1" source="1HQhPPLRjaLAviWX8HrD-16" target="1HQhPPLRjaLAviWX8HrD-17">
          <mxGeometry relative="1" as="geometry" />
        </mxCell>
        <mxCell id="1HQhPPLRjaLAviWX8HrD-16" value="判断pid是否重复" style="rhombus;whiteSpace=wrap;html=1;" vertex="1" parent="1">
          <mxGeometry x="397.5" y="230" width="95" height="80" as="geometry" />
        </mxCell>
        <mxCell id="1HQhPPLRjaLAviWX8HrD-23" style="edgeStyle=orthogonalEdgeStyle;rounded=0;orthogonalLoop=1;jettySize=auto;html=1;exitX=0.5;exitY=1;exitDx=0;exitDy=0;entryX=0.5;entryY=0;entryDx=0;entryDy=0;" edge="1" parent="1" source="1HQhPPLRjaLAviWX8HrD-17" target="1HQhPPLRjaLAviWX8HrD-19">
          <mxGeometry relative="1" as="geometry" />
        </mxCell>
        <mxCell id="1HQhPPLRjaLAviWX8HrD-17" value="依次遍历memeory,找到一块连续的空的内存空间" style="rounded=1;whiteSpace=wrap;html=1;" vertex="1" parent="1">
          <mxGeometry x="385" y="340" width="120" height="60" as="geometry" />
        </mxCell>
        <mxCell id="1HQhPPLRjaLAviWX8HrD-20" style="edgeStyle=orthogonalEdgeStyle;rounded=0;orthogonalLoop=1;jettySize=auto;html=1;exitX=0;exitY=0.5;exitDx=0;exitDy=0;entryX=0;entryY=0.5;entryDx=0;entryDy=0;" edge="1" parent="1" source="1HQhPPLRjaLAviWX8HrD-19" target="1HQhPPLRjaLAviWX8HrD-16">
          <mxGeometry relative="1" as="geometry">
            <Array as="points">
              <mxPoint x="300" y="480" />
              <mxPoint x="300" y="270" />
            </Array>
          </mxGeometry>
        </mxCell>
        <mxCell id="1HQhPPLRjaLAviWX8HrD-22" value="是" style="edgeLabel;html=1;align=center;verticalAlign=middle;resizable=0;points=[];" vertex="1" connectable="0" parent="1HQhPPLRjaLAviWX8HrD-20">
          <mxGeometry x="0.1037" y="-1" relative="1" as="geometry">
            <mxPoint as="offset" />
          </mxGeometry>
        </mxCell>
        <mxCell id="1HQhPPLRjaLAviWX8HrD-24" style="edgeStyle=orthogonalEdgeStyle;rounded=0;orthogonalLoop=1;jettySize=auto;html=1;exitX=0.5;exitY=1;exitDx=0;exitDy=0;" edge="1" parent="1" source="1HQhPPLRjaLAviWX8HrD-19" target="1HQhPPLRjaLAviWX8HrD-25">
          <mxGeometry relative="1" as="geometry">
            <mxPoint x="444" y="580" as="targetPoint" />
          </mxGeometry>
        </mxCell>
        <mxCell id="1HQhPPLRjaLAviWX8HrD-26" style="edgeStyle=orthogonalEdgeStyle;rounded=0;orthogonalLoop=1;jettySize=auto;html=1;exitX=1;exitY=0.5;exitDx=0;exitDy=0;entryX=0;entryY=0.5;entryDx=0;entryDy=0;" edge="1" parent="1" source="1HQhPPLRjaLAviWX8HrD-19" target="1HQhPPLRjaLAviWX8HrD-8">
          <mxGeometry relative="1" as="geometry" />
        </mxCell>
        <mxCell id="1HQhPPLRjaLAviWX8HrD-27" value="如果一直没找到" style="edgeLabel;html=1;align=center;verticalAlign=middle;resizable=0;points=[];" vertex="1" connectable="0" parent="1HQhPPLRjaLAviWX8HrD-26">
          <mxGeometry x="-0.3659" y="-1" relative="1" as="geometry">
            <mxPoint as="offset" />
          </mxGeometry>
        </mxCell>
        <mxCell id="1HQhPPLRjaLAviWX8HrD-19" value="判断长度是否大于psize" style="rhombus;whiteSpace=wrap;html=1;" vertex="1" parent="1">
          <mxGeometry x="397.5" y="440" width="92.5" height="80" as="geometry" />
        </mxCell>
        <mxCell id="1HQhPPLRjaLAviWX8HrD-25" value="成功" style="ellipse;whiteSpace=wrap;html=1;aspect=fixed;" vertex="1" parent="1">
          <mxGeometry x="426.88" y="585" width="33.75" height="33.75" as="geometry" />
        </mxCell>
      </root>
    </mxGraphModel>
  </diagram>
</mxfile>
